<svg id="图层_1" data-name="图层 1" xmlns="http://www.w3.org/2000/svg" viewBox="0 0 160 160"><defs><style>.cls-1,.cls-2{fill:#4b5588;}.cls-2{opacity:0.4;}</style></defs><title>cloud_sun</title><path class="cls-1" d="M116,34A24,24,0,0,0,95.51,45.52a22.25,22.25,0,0,0-1.68,3.3A23.88,23.88,0,0,0,92.54,53,32.81,32.81,0,0,1,100,57.63a15.7,15.7,0,0,1,1-5.15,15,15,0,0,1,1.48-3,16,16,0,1,1,16.46,24.25c-.36.07-.73.13-1.11.17A13.58,13.58,0,0,1,116,74a15.85,15.85,0,0,1-5.57-1,32.46,32.46,0,0,1,1.45,7.35,3.86,3.86,0,0,0,.36,1.35A23.27,23.27,0,0,0,116,82a23.58,23.58,0,0,0,7.69-1.27,24.32,24.32,0,0,0,5.07-2.41A24,24,0,0,0,116,34Z"/><rect class="cls-1" x="112" y="18" width="8" height="12" rx="4"/><rect class="cls-1" x="87.96" y="27.96" width="8" height="12" rx="4" transform="translate(2.92 74.97) rotate(-45)"/><rect class="cls-1" x="136.04" y="76.04" width="8" height="12" rx="4" transform="translate(-16.99 123.05) rotate(-45)"/><rect class="cls-1" x="146" y="52" width="8" height="12" rx="4" transform="translate(92 208) rotate(-90)"/><rect class="cls-1" x="136.04" y="27.96" width="8" height="12" rx="4" transform="translate(215.05 156.99) rotate(-135)"/><path class="cls-1" d="M128.76,82.32a30.16,30.16,0,0,0-5.07-1.59,28.67,28.67,0,0,0-4.28-.64q-.21-1.2-.48-2.37a38.22,38.22,0,0,0-1.11-3.83,41.21,41.21,0,0,0-15.35-20.42c-.49-.34-1-.67-1.48-1a41.93,41.93,0,0,0-5.48-3c-.55-.25-1.11-.48-1.68-.7A40.41,40.41,0,0,0,79,46,41,41,0,0,0,38,86.07,28,28,0,0,0,40,142h77a31,31,0,0,0,11.76-59.68ZM117,134H40a20,20,0,0,1,0-40c.55,0,1.14,0,1.79.08a4,4,0,0,0,4.33-4.31C46,88.76,46,87.85,46,87A33,33,0,0,1,79,54a32.46,32.46,0,0,1,13.54,3A32.81,32.81,0,0,1,100,61.63,33.15,33.15,0,0,1,110.43,77a32.46,32.46,0,0,1,1.45,7.35,3.86,3.86,0,0,0,.36,1.35A4,4,0,0,0,116,88l1,0a23,23,0,0,1,0,46Z"/><path class="cls-2" d="M132,58a16,16,0,0,1-13.07,15.72c-.36.07-.73.13-1.11.17a41.21,41.21,0,0,0-15.35-20.42c-.49-.34-1-.67-1.48-1a15,15,0,0,1,1.48-3A16,16,0,0,1,132,58Z"/><path class="cls-2" d="M117,88l-1,0a4,4,0,0,1-3.8-2.32,3.86,3.86,0,0,1-.36-1.35A32.46,32.46,0,0,0,110.43,77,33.15,33.15,0,0,0,100,61.63,32.81,32.81,0,0,0,92.54,57,32.46,32.46,0,0,0,79,54,33,33,0,0,0,46,87c0,.85,0,1.76.12,2.77a4,4,0,0,1-4.33,4.31C41.14,94,40.55,94,40,94a20,20,0,0,0,0,40h77a23,23,0,0,0,0-46Z"/></svg>