<svg id="图层_1" data-name="图层 1" xmlns="http://www.w3.org/2000/svg" viewBox="0 0 160 160"><defs><style>.cls-1,.cls-2{fill:#4b5588;}.cls-2{opacity:0.4;}</style></defs><title>cloud</title><path class="cls-1" d="M119.41,66.09a41,41,0,0,0-81.4,6A28,28,0,0,0,40,128h77a31,31,0,0,0,2.41-61.91ZM117,120H40a20,20,0,0,1,0-40c.55,0,1.14,0,1.79.08a4,4,0,0,0,4.33-4.31C46,74.76,46,73.85,46,73a33,33,0,0,1,65.88-2.65A4,4,0,0,0,116,74l1,0a23,23,0,0,1,0,46Z"/><path class="cls-2" d="M140,97a23,23,0,0,1-23,23H40a20,20,0,0,1,0-40c.55,0,1.14,0,1.79.08a4,4,0,0,0,4.33-4.31C46,74.76,46,73.85,46,73a33,33,0,0,1,65.88-2.65A4,4,0,0,0,116,74l1,0A23,23,0,0,1,140,97Z"/></svg>