<svg id="图层_1" data-name="图层 1" xmlns="http://www.w3.org/2000/svg" viewBox="0 0 160 160"><defs><style>.cls-1,.cls-2{fill:#4b5588;}.cls-2{opacity:0.4;}.cls-3{fill:none;stroke:#4b5588;stroke-linecap:round;stroke-linejoin:round;stroke-width:8px;}</style></defs><title>lightning</title><path class="cls-1" d="M119.41,52.09a41,41,0,0,0-81.4,6A28,28,0,0,0,40,114h77a31,31,0,0,0,2.41-61.91ZM117,106H40a20,20,0,0,1,0-40c.55,0,1.14,0,1.79.08a4,4,0,0,0,4.33-4.31C46,60.76,46,59.85,46,59a33,33,0,0,1,65.88-2.65A4,4,0,0,0,116,60l1,0a23,23,0,0,1,0,46Z"/><path class="cls-2" d="M140,83a23,23,0,0,1-23,23H40a20,20,0,0,1,0-40c.55,0,1.14,0,1.79.08a4,4,0,0,0,4.33-4.31C46,60.76,46,59.85,46,59a33,33,0,0,1,65.88-2.65A4,4,0,0,0,116,60l1,0A23,23,0,0,1,140,83Z"/><line class="cls-3" x1="102" y1="142" x2="118" y2="126"/><line class="cls-3" x1="69" y1="134" x2="82" y2="122"/><line class="cls-3" x1="38" y1="142" x2="54" y2="126"/><line class="cls-3" x1="70" y1="134" x2="86" y2="134"/><line class="cls-3" x1="86" y1="134" x2="73" y2="146"/></svg>