<svg id="图层_1" data-name="图层 1" xmlns="http://www.w3.org/2000/svg" viewBox="0 0 160 160"><defs><style>.cls-1,.cls-2{fill:#4b5588;}.cls-2{opacity:0.4;}.cls-3{fill:none;stroke:#4b5588;stroke-linecap:round;stroke-linejoin:round;stroke-width:8px;}</style></defs><title>snow01</title><path class="cls-1" d="M119.41,54.09a41,41,0,0,0-81.4,6A28,28,0,0,0,40,116h77a31,31,0,0,0,2.41-61.91ZM117,108H40a20,20,0,0,1,0-40c.55,0,1.14,0,1.79.08a4,4,0,0,0,4.33-4.31C46,62.76,46,61.85,46,61a33,33,0,0,1,65.88-2.65A4,4,0,0,0,116,62l1,0a23,23,0,0,1,0,46Z"/><path class="cls-2" d="M140,85a23,23,0,0,1-23,23H40a20,20,0,0,1,0-40c.55,0,1.14,0,1.79.08a4,4,0,0,0,4.33-4.31C46,62.76,46,61.85,46,61a33,33,0,0,1,65.88-2.65A4,4,0,0,0,116,62l1,0A23,23,0,0,1,140,85Z"/><line class="cls-3" x1="88" y1="144" x2="72" y2="128"/><line class="cls-3" x1="72" y1="144" x2="88" y2="128"/></svg>