<svg id="图层_1" data-name="图层 1" xmlns="http://www.w3.org/2000/svg" viewBox="0 0 160 160"><defs><style>.cls-1,.cls-2{fill:#4b5588;}.cls-2{opacity:0.4;}.cls-3{fill:none;stroke:#4b5588;stroke-linecap:round;stroke-linejoin:round;stroke-width:8px;}</style></defs><title>sun_day</title><path class="cls-1" d="M80,36a44,44,0,1,0,44,44A44.05,44.05,0,0,0,80,36Zm0,80a36,36,0,1,1,36-36A36,36,0,0,1,80,116Z"/><circle class="cls-2" cx="80" cy="80" r="36"/><line class="cls-3" x1="80" y1="16" x2="80" y2="28"/><line class="cls-3" x1="80" y1="132" x2="80" y2="144"/><line class="cls-3" x1="34.75" y1="34.75" x2="43.23" y2="43.23"/><line class="cls-3" x1="116.77" y1="116.77" x2="125.25" y2="125.25"/><line class="cls-3" x1="16" y1="80" x2="28" y2="80"/><line class="cls-3" x1="132" y1="80" x2="144" y2="80"/><line class="cls-3" x1="34.75" y1="125.25" x2="43.23" y2="116.77"/><line class="cls-3" x1="116.77" y1="43.23" x2="125.25" y2="34.75"/></svg>