<svg id="图层_1" data-name="图层 1" xmlns="http://www.w3.org/2000/svg" viewBox="0 0 160 160"><defs><style>.cls-1,.cls-2{fill:#4b5588;}.cls-2{opacity:0.4;}</style></defs><title>sun_night</title><path class="cls-1" d="M135.44,97.13a3.69,3.69,0,0,0-3.21-1.54c-.68,0-1.38,0-2.07,0A44.71,44.71,0,0,1,91.78,28.09,3.73,3.73,0,0,0,89,22.47,56.9,56.9,0,0,0,81.77,22a58,58,0,1,0,54.14,78.66A3.75,3.75,0,0,0,135.44,97.13ZM81.77,130.52a50.52,50.52,0,0,1,0-101h.86A52.2,52.2,0,0,0,126.68,103,50.77,50.77,0,0,1,81.77,130.52Z"/><path class="cls-2" d="M126.68,103A50.46,50.46,0,1,1,81.77,29.48h.86A52.2,52.2,0,0,0,126.68,103Z"/></svg>